<?xml version="1.0" encoding="utf-8"?>
<!-- Generator: Adobe Illustrator 19.2.0, SVG Export Plug-In . SVG Version: 6.00 Build 0)  -->
<svg version="1.1" id="Layer_1" xmlns="http://www.w3.org/2000/svg" xmlns:xlink="http://www.w3.org/1999/xlink" x="0px" y="0px"
	 viewBox="0 0 100 100" style="enable-background:new 0 0 100 100;" xml:space="preserve">
<g>
	<path d="M51.1,34.6v28.9c0,10.1-7.5,18.9-17.5,19.8c-10.6,1-19.7-6.6-21.1-16.7c-0.1-0.2-3.2-20.3-3.2-20.3c-0.3-1.9,1-3.7,2.9-4
		c1.9-0.3,3.7,1,4,2.9l1.5,9.3c0.1,0.7,0.7,1.2,1.4,1.2c0.8,0,1.4-0.6,1.4-1.4V27.7c0-1.4,0.9-2.7,2.2-3c1.9-0.5,3.7,1,3.7,2.8v21.7
		c0,0.6,0.5,1.2,1.2,1.2s1.2-0.5,1.2-1.2V23c0-1.4,0.9-2.7,2.2-3c1.9-0.5,3.7,1,3.7,2.8v25.2c0,0.6,0.5,1.2,1.2,1.2
		c0.6,0,1.2-0.5,1.2-1.2v-20c0-1.4,0.9-2.7,2.2-3c1.9-0.5,3.7,1,3.7,2.8v22.5c0,0.6,0.5,1.2,1.2,1.2c0.6,0,1.2-0.5,1.2-1.2V34.8
		c0-1.4,0.9-2.7,2.2-3C49.4,31.3,51.1,32.8,51.1,34.6z"/>
</g>
<path d="M61.2,37.1c-1.1-1.1-3-1.1-4.2,0s-1.1,3,0,4.2c5.7,5.7,5.7,15,0,20.8c-1.1,1.1-1.1,3,0,4.2s3,1.1,4.2,0
	C69.3,58.2,69.3,45.1,61.2,37.1z"/>
<path d="M69.6,28.8c-1.1-1.1-3-1.1-4.2,0s-1.1,3,0,4.2c10.3,10.3,10.3,27.1,0,37.4c-1.1,1.1-1.1,3,0,4.2s3,1.1,4.2,0
	C82.1,61.9,82.1,41.4,69.6,28.8z"/>
<path d="M77.9,20.5c-1.1-1.1-3-1.1-4.2,0s-1.1,3,0,4.2c14.9,14.9,14.9,39.1,0,54c-1.1,1.1-1.1,3,0,4.2s3,1.1,4.2,0
	C95,65.6,95,37.7,77.9,20.5z"/>
</svg>
