<?xml version="1.0" encoding="utf-8"?>
<!-- Generator: Adobe Illustrator 19.2.0, SVG Export Plug-In . SVG Version: 6.00 Build 0)  -->
<svg version="1.1" id="Layer_1" xmlns="http://www.w3.org/2000/svg" xmlns:xlink="http://www.w3.org/1999/xlink" x="0px" y="0px"
	 viewBox="0 0 100 100" style="enable-background:new 0 0 100 100;" xml:space="preserve">
<title>Hand_10</title>
<path d="M61.8,35.2c0-4.1,6.4-4.1,6.4,0v6.7c0,4.1-6.4,4.1-6.4,0L61.8,35.2L61.8,35.2z M55.6,30.3c1.8,0,3.2,1.4,3.2,3.2V42
	c-0.1,1.8-1.6,3.1-3.4,3c-1-0.1-1.9-0.6-2.5-1.4c0.8-1.4,1.2-2.9,1.2-4.5v-1.2c0-0.3-0.1-0.5-0.2-0.8c-0.3-0.5-0.7-0.8-1.3-0.8h-0.2
	v-2.9C52.4,31.8,53.8,30.3,55.6,30.3C55.6,30.4,55.6,30.4,55.6,30.3L55.6,30.3z M46.2,28.6c1.9,0,3.2,1.5,3.2,2.5v5.2H43v-4.6
	C43,30.1,44.4,28.7,46.2,28.6L46.2,28.6z M33.8,15.2c0-1.7,1.4-3.1,3.1-3.1l0,0h0.1c1.7,0,3.1,1.3,3.1,3c0,0,0,0,0,0v21.2h-0.5
	c-2,0-4,0.6-5.7,1.8C33.8,38.2,33.8,15.2,33.8,15.2z M40.4,73.9V68l0.7,0.2c1.6,0.5,3.3,0.8,5,0.8h9.8c1.9,0,3.9-0.4,5.7-1.1v5.9
	L40.4,73.9L40.4,73.9z M68.2,53.9C68.1,60.6,62.6,66,55.9,66h-9.8c-1.1,0-2.1-0.1-3.2-0.4l-0.9-0.3c-5.9-1.4-10.1-6.7-10.1-12.8
	v-4.2c0-4.4,2.9-8.9,7.7-8.9h11.6c-0.1,1.4-0.6,2.8-1.6,3.8l0,0c-0.5,0.6-1.2,1.1-1.9,1.5l-0.3,0.1c-0.8,0.3-1.6,0.5-2.5,0.5h-3.2
	c-0.8,0-1.5,0.7-1.5,1.5v3.6c0,1.4,1.3,1.4,2.4,1.6c2.3,0.3,4.2,1.8,5.2,3.9c0.3,0.5,0.4,1.1,0.5,1.7c0,0.6,0.1,1.1,0.2,1.7
	c0.4,0.7,1.3,1,2,0.6c0.3-0.1,0.5-0.4,0.6-0.6c0.6-1,0-2.8-0.3-3.8c-1.2-3.4-4.1-5.8-7.6-6.4v-0.7h1.7c1.1,0,2.2-0.2,3.3-0.6
	c1.1-0.4,2-1,2.9-1.8c2.3,2.5,6.3,2.7,8.9,0.4c0.2-0.1,0.3-0.3,0.5-0.5c2,2.3,5.3,2.8,7.9,1.3L68.2,53.9L68.2,53.9z"/>
</svg>
