<?xml version="1.0" encoding="utf-8"?>
<!-- Generator: Adobe Illustrator 19.2.0, SVG Export Plug-In . SVG Version: 6.00 Build 0)  -->
<svg version="1.1" id="Layer_1" xmlns="http://www.w3.org/2000/svg" xmlns:xlink="http://www.w3.org/1999/xlink" x="0px" y="0px"
	 viewBox="0 0 35 29.6" style="enable-background:new 0 0 35 29.6;" xml:space="preserve">
<g>
	<g>
		<path d="M17.5,18.8c-2.2,0-4-1.8-4-4s1.8-4,4-4s4,1.8,4,4S19.7,18.8,17.5,18.8z M17.5,12.8c-1.1,0-2,0.9-2,2s0.9,2,2,2s2-0.9,2-2
			S18.6,12.8,17.5,12.8z"/>
		<path d="M17.5,23.3c-4.7,0-8.5-3.8-8.5-8.5s3.8-8.5,8.5-8.5s8.5,3.8,8.5,8.5C26,19.5,22.2,23.3,17.5,23.3z M17.5,8.3
			c-3.6,0-6.5,2.9-6.5,6.5s2.9,6.5,6.5,6.5s6.5-2.9,6.5-6.5C24,11.2,21.1,8.3,17.5,8.3z"/>
		<path d="M22.4,26.8c-0.6,0-1-0.4-1-1c0-0.4,0.2-0.8,0.6-0.9c5.5-2.5,8-9,5.5-14.5c-1.1-2.5-3.1-4.4-5.5-5.5
			c-0.5-0.2-0.8-0.8-0.6-1.3s0.8-0.8,1.3-0.6c0,0,0.1,0,0.1,0.1c6.6,2.9,9.5,10.6,6.5,17.2c-1.3,2.9-3.6,5.2-6.5,6.5
			C22.7,26.7,22.6,26.8,22.4,26.8z"/>
		<path d="M12.6,26.8c-0.1,0-0.3,0-0.4-0.1C5.6,23.7,2.7,16,5.6,9.5C6.9,6.6,9.3,4.3,12.2,3c0.5-0.2,1.1,0,1.3,0.5
			c0.2,0.5,0,1.1-0.5,1.3l0,0c-5.5,2.5-8,9-5.5,14.5c1.1,2.5,3.1,4.4,5.5,5.5c0.5,0.2,0.7,0.8,0.5,1.3C13.3,26.5,13,26.8,12.6,26.8
			L12.6,26.8z"/>
		<path d="M8.5,29.6c-0.2,0-0.4-0.1-0.5-0.2c-2.8-1.8-5-4.4-6.3-7.4c-2.1-4.6-2.1-9.9,0-14.6C3,4.5,5.2,2,7.9,0.2
			C8.4-0.2,9-0.1,9.3,0.3s0.3,1.1-0.1,1.4C9.1,1.8,9.1,1.8,9,1.8c-4.4,2.9-7,7.8-7,13c0,5.2,2.6,10.1,7,13c0.5,0.3,0.6,0.9,0.3,1.4
			C9.1,29.5,8.8,29.7,8.5,29.6L8.5,29.6z"/>
		<path d="M26.5,29.6c-0.6,0-1-0.5-1-1c0-0.3,0.2-0.6,0.5-0.8c4.4-2.9,7-7.8,7-13c0-5.2-2.6-10.1-7-13c-0.5-0.2-0.8-0.7-0.6-1.3
			s0.7-0.8,1.3-0.6c0.2,0.1,0.3,0.1,0.4,0.3c2.8,1.8,5,4.4,6.4,7.4c2.1,4.6,2.1,9.9,0,14.6c-1.4,3-3.6,5.6-6.3,7.4
			C26.9,29.6,26.7,29.6,26.5,29.6z"/>
	</g>
</g>
</svg>
