<?xml version="1.0" encoding="utf-8"?>
<!-- Generator: Adobe Illustrator 19.2.0, SVG Export Plug-In . SVG Version: 6.00 Build 0)  -->
<svg version="1.1" id="Layer_1" xmlns="http://www.w3.org/2000/svg" xmlns:xlink="http://www.w3.org/1999/xlink" x="0px" y="0px"
	 viewBox="0 0 100 100" style="enable-background:new 0 0 100 100;" xml:space="preserve">
<path d="M55.6,29.6c1.8,0,3.2,1.4,3.2,3.2v6.8v2.7c0,1.7-1.4,3.2-3.2,3.2c-1.2,0-2.2-0.7-2.8-1.6c0.8-1.3,1.3-2.8,1.3-4.5
	c0-0.1,0-0.1,0-0.2v-1.2c0-0.8-0.7-1.5-1.5-1.5h-0.2v-3.7C52.4,31,53.8,29.6,55.6,29.6z M46.2,29.6c1.8,0,3.2,1.4,3.2,3.2v3.7H43
	v-3.7C43,31,44.4,29.6,46.2,29.6z M33.8,15.2c0-1.7,1.4-3.1,3.1-3.1h0.1c1.7,0,3.1,1.4,3.1,3.1v21.2h-0.5c-2,0-4,0.6-5.7,1.8
	C33.8,38.2,33.8,15.2,33.8,15.2z M68.2,53.8c0,6.7-5.5,12.2-12.3,12.2h-9.8c-1.3,0-2.5-0.2-3.7-0.6c-0.2,0-0.5-0.2-0.5-0.2
	c-5.9-1.4-10-6.6-10-12.7v-4.2c0-2.2,0.7-4.4,2-6c1.3-1.7,3.2-2.8,5.7-2.8h11.6c-0.2,3.3-2.9,6-6.3,6h-3.2c-0.8,0-1.5,0.7-1.5,1.5
	v3.6c0,0.8,0.7,1.5,1.5,1.5c3.7,0,6.6,3,6.6,6.6c0,0.8,0.7,1.5,1.5,1.5c0.8,0,1.5-0.7,1.5-1.5c0-4.8-3.5-8.8-8.1-9.5v-0.7h1.7
	c2.3,0,4.4-0.8,6-2.2c1.1,1.4,2.8,2.3,4.8,2.3c3.4,0,6.2-2.8,6.2-6.2V22.3c0-1.7,1.4-3.2,3.2-3.2c1.8,0,3.2,1.4,3.2,3.2L68.2,53.8z"
	/>
<path d="M40.4,73.9V68l0.7,0.2c1.6,0.5,3.3,0.8,5,0.8h9.8c1.9,0,3.9-0.4,5.7-1.1v5.9L40.4,73.9L40.4,73.9z"/>
</svg>
